#!OML:ASF F:\VICON\USERDATA\INSTALL\rory3\rory3.ASF
:FULLY-SPECIFIED
:DEGREES
1065
root 1.73859 17.8264 15.2931 4.80758 -50.2718 -357.016
lowerback 3.33742 -0.753612 -5.31414
upperback -0.607395 -1.1886 1.77574
thorax -2.35624 -0.50815 4.8883
lowerneck -19.3746 -4.5002 -10.6381
upperneck 26.9777 -5.54333 7.83896
head 12.7384 -2.61271 3.88317
rclavicle 7.71781e-014 -1.66979e-014
rhumerus -30.0488 -14.5519 -75.8539
rradius 26.9408
rwrist 20.144
rhand -22.6655 2.2139
rfingers 7.12502
rthumb 3.76615 -27.7326
lclavicle 7.71781e-014 -1.66979e-014
lhumerus -26.0212 12.9123 77.2296
lradius 34.0018
lwrist -1.07835
lhand -16.068 27.8864
lfingers 7.12502
lthumb 10.1346 57.6223
rfemur -18.5131 2.99579 14.9117
rtibia 37.4301
rfoot -21.7906 6.9338
rtoes -10.4177
lfemur -12.005 5.02638 -25.2641
ltibia 19.063
lfoot -10.4107 -0.257574
ltoes -15.9056
1066
root 1.75512 17.8332 15.2775 5.03579 -51.0867 -357.264
lowerback 3.34272 -0.697598 -5.23053
upperback -0.653548 -1.11062 1.808
thorax -2.41747 -0.467174 4.87156
lowerneck -19.2301 -4.54566 -10.8524
upperneck 27.3756 -5.70151 8.16829
head 12.9072 -2.67626 4.03506
rclavicle -1.90336e-014 -9.14409e-015
rhumerus -30.4158 -14.4209 -75.75
rradius 27.2795
rwrist 20.158
rhand -22.197 2.55199
rfingers 7.12502
rthumb 4.21854 -27.386
lclavicle -1.90336e-014 -9.14409e-015
lhumerus -25.999 12.8765 77.0916
lradius 34.0731
lwrist -1.12833
lhand -16.0832 27.9908
lfingers 7.12502
lthumb 10.1199 57.7274
rfemur -18.6709 2.36551 15.2997
rtibia 37.5199
rfoot -22.0466 4.76993
rtoes -8.24578
lfemur -12.2834 4.97536 -25.1029
ltibia 19.4839
lfoot -10.5142 0.586756
ltoes -15.8473
1067
root 1.7723 17.8447 15.2604 5.32001 -51.9561 -357.574
lowerback 3.41414 -0.60711 -5.12656
upperback -0.825528 -0.989101 1.91343
thorax -2.65066 -0.396097 4.92042
lowerneck -18.7642 -4.67992 -11.5671
upperneck 27.7587 -5.97566 8.83387
head 13.0516 -2.81133 4.39108
rclavicle 8.91549e-014 2.82274e-014
rhumerus -30.941 -14.0936 -75.5371
rradius 27.5677
rwrist 20.1292
rhand -22.0284 2.84151
rfingers 7.12502
rthumb 4.38132 -27.0932
lclavicle 8.91549e-014 2.82274e-014
lhumerus -26.2246 12.9029 77.0265
lradius 34.0966
lwrist -1.36709
lhand -16.2752 28.0394
lfingers 7.12502
lthumb 9.93469 57.7849
rfemur -18.8427 1.60982 15.7371
rtibia 37.6574
rfoot -22.4127 2.5761
rtoes -8.4113
lfemur -12.477 4.9406 -24.8943
ltibia 19.721
lfoot -10.4865 1.43863
ltoes -16.4871
1068
root 1.78988 17.8497 15.2456 5.14647 -52.8098 -357.408
lowerback 3.46968 -0.602504 -5.27489
upperback -0.839066 -0.991963 1.93696
thorax -2.69322 -0.393252 5.03081
lowerneck -18.507 -4.60044 -11.9831
upperneck 28.0975 -5.90701 9.17839
head 13.1559 -2.79965 4.62744
rclavicle 1.17134e-013 -3.97569e-016
rhumerus -31.1068 -13.4151 -75.6436
rradius 27.912
rwrist 19.7999
rhand -22.0214 3.01451
rfingers 7.12502
rthumb 4.38808 -26.92
lclavicle 1.17134e-013 -3.97569e-016
lhumerus -26.2411 12.9959 76.9921
lradius 34.0832
lwrist -1.06454
lhand -16.3419 28.0498
lfingers 7.12502
lthumb 9.87032 57.7984
rfemur -18.9004 0.854829 15.8244
rtibia 37.8408
rfoot -22.8575 0.847822
rtoes -7.56307
lfemur -12.4032 4.94014 -25.0164
ltibia 19.626
lfoot -10.3291 2.22084
ltoes -17.0232
1069
root 1.80561 17.8496 15.2343 4.87253 -53.6594 -357.131
lowerback 3.49079 -0.614969 -5.47566
upperback -0.788278 -1.01849 1.9116
thorax -2.64662 -0.406112 5.11954
lowerneck -18.3811 -4.40815 -12.1089
upperneck 28.4972 -5.69133 9.3142
head 13.2739 -2.71724 4.75786
rclavicle -3.80176e-014 1.11319e-014
rhumerus -31.2815 -12.2267 -75.9945
rradius 28.4981
rwrist 18.8621
rhand -22.1267 3.28771
rfingers 7.12502
rthumb 4.28644 -26.6489
lclavicle -3.80176e-014 1.11319e-014
lhumerus -26.1692 13.1041 76.927
lradius 34.1055
lwrist -0.73001
lhand -16.3256 28.222
lfingers 7.12502
lthumb 9.88603 57.9698
rfemur -18.9065 0.140718 15.7985
rtibia 38.0289
rfoot -23.3249 -0.415295
rtoes -6.14199
lfemur -12.297 5.0374 -25.2189
ltibia 19.5208
lfoot -10.1837 2.92023
ltoes -16.0466
1070
root 1.82088 17.8497 15.2227 4.88604 -54.5079 -357.202
lowerback 3.53483 -0.608239 -5.46769
upperback -0.773792 -1.01046 1.94668
thorax -2.65698 -0.40202 5.15204
lowerneck -18.2179 -4.22095 -12.2325
upperneck 29.0353 -5.48916 9.40277
head 13.4427 -2.65262 4.87293
rclavicle -4.82053e-015 -1.86858e-014
rhumerus -31.5292 -10.8466 -76.3277
rradius 29.0799
rwrist 17.7627
rhand -22.1342 3.69056
rfingers 7.12502
rthumb 4.27923 -26.2462
lclavicle -4.82053e-015 -1.86858e-014
lhumerus -26.0994 13.1102 76.8089
lradius 33.9724
lwrist -0.754988
lhand -16.4239 28.1046
lfingers 7.12502
lthumb 9.79115 57.857
rfemur -18.9216 -0.406151 15.986
rtibia 38.2209
rfoot -23.7172 -1.6169
rtoes -4.58651
lfemur -12.1894 5.14097 -25.1785
ltibia 19.3906
lfoot -9.73257 3.615
ltoes -15.0379
1071
root 1.83772 17.8543 15.2081 4.99141 -55.2856 -357.368
lowerback 3.57542 -0.623448 -5.41561
upperback -0.745457 -1.02947 1.97505
thorax -2.64827 -0.413178 5.15357
lowerneck -18.0088 -3.97752 -12.085
upperneck 29.4947 -5.24397 9.33995
head 13.5483 -2.55838 4.88282
rclavicle -2.80783e-014 -2.78299e-015
rhumerus -31.5981 -10.0306 -76.5577
rradius 29.4483
rwrist 17.2284
rhand -21.9521 4.17709
rfingers 7.12502
rthumb 4.45505 -25.7561
lclavicle -2.80783e-014 -2.78299e-015
lhumerus -25.8893 12.908 76.6495
lradius 33.6741
lwrist -0.779002
lhand -16.3082 27.8294
lfingers 7.12502
lthumb 9.90282 57.5765
rfemur -18.941 -0.931458 16.2454
rtibia 38.39
rfoot -24.0855 -2.8706
rtoes -3.62841
lfemur -12.1539 5.25596 -25.073
ltibia 19.3074
lfoot -9.30194 4.20881
ltoes -15.1997
1072
root 1.85544 17.8561 15.1912 5.00598 -55.9846 -357.374
lowerback 3.53926 -0.656902 -5.46077
upperback -0.675651 -1.0731 1.98311
thorax -2.54899 -0.439229 5.18829
lowerneck -17.9198 -3.76577 -11.8178
upperneck 29.9879 -5.0393 9.18201
head 13.6952 -2.47812 4.82656
rclavicle -9.98396e-014 -3.18055e-015
rhumerus -31.4141 -10.1318 -76.6014
rradius 29.5798
rwrist 17.5941
rhand -21.7172 4.40599
rfingers 7.12502
rthumb 4.6818 -25.5223
lclavicle -9.98396e-014 -3.18055e-015
lhumerus -25.6583 12.9198 76.5368
lradius 33.5223
lwrist -0.872177
lhand -15.5623 27.6787
lfingers 7.12502
lthumb 10.6224 57.3902
rfemur -18.989 -1.67778 16.418
rtibia 38.5151
rfoot -24.3827 -4.05476
rtoes -3.4447
lfemur -12.2197 5.24783 -25.0461
ltibia 19.3263
lfoot -9.70219 4.76376
ltoes -14.0958
1073
root 1.87467 17.8543 15.1683 4.81619 -56.6929 -357.39
lowerback 3.78518 -0.750526 -5.6
upperback -0.584016 -1.21386 2.09016
thorax -2.56941 -0.508518 5.39134
lowerneck -17.7353 -3.49451 -11.9125
upperneck 30.4873 -4.70235 9.21009
head 13.8249 -2.36258 4.93446
rclavicle -8.09054e-014 4.37326e-015
rhumerus -31.0524 -10.5073 -76.5754
rradius 29.5063
rwrist 18.5717
rhand -21.5096 4.7612
rfingers 7.12502
rthumb 4.88232 -25.1626
lclavicle -8.09054e-014 4.37326e-015
lhumerus -25.694 13.2351 76.431
lradius 33.5331
lwrist -0.927498
lhand -15.1535 27.6674
lfingers 7.12502
lthumb 11.0167 57.3583
rfemur -18.8251 -2.33331 16.5893
rtibia 38.608
rfoot -24.6988 -5.00134
rtoes -1.95104
lfemur -12.084 5.08913 -24.9549
ltibia 19.3733
lfoot -10.0909 5.49726
ltoes -13.115
1074
root 1.89122 17.8559 15.1451 4.94356 -57.5693 -357.809
lowerback 4.05999 -0.816203 -5.57535
upperback -0.532772 -1.31011 2.28204
thorax -2.6543 -0.554479 5.59012
lowerneck -17.4445 -3.16822 -12.1449
upperneck 31.0491 -4.2696 9.26523
head 13.9496 -2.22561 5.09727
rclavicle 1.78409e-014 1.47101e-014
rhumerus -30.7887 -10.3953 -76.6624
rradius 29.5095
rwrist 19.1562
rhand -21.5002 5.19039
rfingers 7.12502
rthumb 4.89134 -24.7331
lclavicle 1.78409e-014 1.47101e-014
lhumerus -25.8874 13.702 76.283
lradius 33.5701
lwrist -1.12289
lhand -14.9939 27.5545
lfingers 7.12502
lthumb 11.1706 57.2372
rfemur -18.6239 -2.74267 16.9629
rtibia 38.6664
rfoot -24.7547 -5.88304
rtoes -1.52392
lfemur -11.8989 5.20394 -24.6635
ltibia 19.3917
lfoot -9.60793 6.26089
ltoes -14.1777
1075
root 1.90839 17.859 15.127 5.23716 -58.5044 -358.138
lowerback 4.08483 -0.759079 -5.459
upperback -0.557626 -1.22925 2.30016
thorax -2.70702 -0.513343 5.53924
lowerneck -17.0865 -2.92627 -12.0119
upperneck 31.6492 -4.06735 9.22379
head 14.0974 -2.16258 5.11667
rclavicle 2.54444e-014 7.95139e-016
rhumerus -30.8314 -10.2384 -76.8568
rradius 29.7803
rwrist 19.1051
rhand -21.6902 5.09723
rfingers 7.12502
rthumb 4.70792 -24.8305
lclavicle 2.54444e-014 7.95139e-016
lhumerus -25.9107 13.7204 76.1219
lradius 33.5085
lwrist -1.31289
lhand -15.0151 27.4375
lfingers 7.12502
lthumb 11.1502 57.1212
rfemur -18.6706 -3.1391 17.2039
rtibia 38.7163
rfoot -24.7841 -6.41983
rtoes -1.62779
lfemur -11.9146 5.41472 -24.493
ltibia 19.3514
lfoot -9.20151 6.94718
ltoes -15.2253
1076
root 1.92626 17.8633 15.1118 5.24925 -59.2373 -358.102
lowerback 4.07028 -0.751054 -5.40075
upperback -0.588598 -1.21685 2.22863
thorax -2.73517 -0.506701 5.43023
lowerneck -16.7278 -2.70517 -11.9002
upperneck 32.3066 -3.89011 9.16815
head 14.2774 -2.11803 5.13245
rclavicle -3.57812e-015 2.70347e-014
rhumerus -30.913 -10.2881 -76.9786
rradius 30.1372
rwrist 19.0695
rhand -21.6456 4.68749
rfingers 7.12502
rthumb 4.751 -25.2392
lclavicle -3.57812e-015 2.70347e-014
lhumerus -25.9251 13.649 75.9703
lradius 33.4861
lwrist -1.51091
lhand -15.0255 27.3864
lfingers 7.12502
lthumb 11.1402 57.0707
rfemur -18.7218 -3.67039 17.1894
rtibia 38.7783
rfoot -24.9915 -6.73075
rtoes -0.453867
lfemur -11.9221 5.39184 -24.5343
ltibia 19.2404
lfoot -9.06432 7.62039
ltoes -15.6004
1077
root 1.93806 17.8706 15.0942 5.01437 -59.9593 -357.911
lowerback 4.10966 -0.802116 -5.47932
upperback -0.598605 -1.29142 2.21641
thorax -2.75651 -0.541794 5.46763
lowerneck -16.3471 -2.43798 -12.1958
upperneck 33.0336 -3.58516 9.29315
head 14.4826 -2.05183 5.32388
rclavicle 2.37051e-014 1.82882e-014
rhumerus -30.9173 -10.3383 -76.9697
rradius 30.3635
rwrist 19.278
rhand -21.4332 4.81229
rfingers 7.12502
rthumb 4.95606 -25.1098
lclavicle 2.37051e-014 1.82882e-014
lhumerus -26.098 13.9507 75.7799
lradius 33.4698
lwrist -2.03995
lhand -14.8222 27.0555
lfingers 7.12502
lthumb 11.3362 56.7292
rfemur -18.6429 -4.05319 17.0806
rtibia 38.8688
rfoot -25.2333 -7.0314
rtoes 1.77247
lfemur -11.7616 5.34053 -24.6166
ltibia 19.0507
lfoot -8.88074 8.31613
ltoes -15.4804
1078
root 1.94807 17.8747 15.0705 4.83371 -60.7847 -357.713
lowerback 4.05147 -0.866237 -5.7221
upperback -0.601392 -1.38465 2.28992
thorax -2.7073 -0.585749 5.68737
lowerneck -15.9518 -2.13983 -12.4853
upperneck 33.7442 -3.20839 9.3296
head 14.666 -1.96932 5.48824
rclavicle -1.85864e-014 2.74323e-014
rhumerus -30.7728 -10.1973 -76.9259
rradius 30.4077
rwrist 19.4284
rhand -21.2858 5.31764
rfingers 7.12502
rthumb 5.09842 -24.601
lclavicle -1.85864e-014 2.74323e-014
lhumerus -26.2955 14.4727 75.6233
lradius 33.4279
lwrist -2.5467
lhand -14.5206 26.7677
lfingers 7.12502
lthumb 11.6271 56.4251
rfemur -18.6488 -4.403 16.9982
rtibia 38.9865
rfoot -25.4095 -7.31054
rtoes 3.38955
lfemur -11.6282 5.45787 -24.6796
ltibia 18.7668
lfoot -8.70478 8.90267
ltoes -15.3448
1079
root 1.9587 17.875 15.048 4.77199 -61.5903 -357.631
lowerback 3.95009 -0.904299 -5.82632
upperback -0.577391 -1.43405 2.3267
thorax -2.61515 -0.612613 5.78518
lowerneck -15.4883 -1.8057 -12.358
upperneck 34.333 -2.80259 9.06448
head 14.7609 -1.85733 5.4427
rclavicle -8.34896e-015 -1.98785e-015
rhumerus -30.6496 -10.1479 -76.9477
rradius 30.5736
rwrist 19.3802
rhand -21.2428 5.33716
rfingers 7.12502
rthumb 5.13994 -24.5805
lclavicle -8.34896e-015 -1.98785e-015
lhumerus -26.3837 14.4806 75.5893
lradius 33.395
lwrist -2.42194
lhand -14.6733 26.737
lfingers 7.12502
lthumb 11.4798 56.4027
rfemur -18.6283 -4.81057 16.9686
rtibia 39.0728
rfoot -25.6212 -7.5446
rtoes 3.90147
lfemur -11.5191 5.60098 -24.6824
ltibia 18.4885
lfoot -8.40419 9.45328
ltoes -15.7521
